<svg width="96" height="96" viewBox="0 0 96 96" fill="none" xmlns="http://www.w3.org/2000/svg">
  <path d="M86.16 49.08C86.16 46.26 85.92 44.16 85.38 41.94H48V56.7H69.96C69.54 60.36 67.26 65.88 62.16 69.6L62.09 70.09L73.91 79.25L74.73 79.33C82.26 72.36 86.16 62.1 86.16 49.08Z" fill="#4285F4"/>
  <path d="M48 88C58.74 88 67.74 84.46 74.73 79.33L62.16 69.6C58.8 71.94 54.3 73.56 48 73.56C37.5 73.56 28.62 66.6 25.44 56.94L24.97 56.98L12.68 66.49L12.51 66.94C19.44 80.7 32.94 88 48 88Z" fill="#34A853"/>
  <path d="M25.44 56.94C24.6 54.72 24.12 52.32 24.12 49.8C24.12 47.28 24.6 44.88 25.38 42.66L25.36 42.14L12.92 32.48L12.51 32.66C9.66 38.34 8.04 44.7 8.04 51.42C8.04 58.14 9.66 64.5 12.51 70.18L25.44 56.94Z" fill="#FBBC05"/>
  <path d="M48 23.88C55.92 23.88 61.26 27.3 64.32 30.18L75 19.74C67.68 12.96 58.74 8.82 48 8.82C32.94 8.82 19.44 16.12 12.51 29.88L25.38 42.66C28.62 33 37.5 23.88 48 23.88Z" fill="#EA4335"/>
</svg>
