<svg xmlns="http://www.w3.org/2000/svg" width="1600" height="960" viewBox="0 0 1600 960" role="img" aria-labelledby="title desc">
  <title id="title">Membership Campaign Playbook</title>
  <desc id="desc">Abstract cover art with layered cards and warm cream highlights.</desc>
  <defs>
    <linearGradient id="bg" x1="0" x2="1" y1="0" y2="1">
      <stop offset="0%" stop-color="#0e1624"/>
      <stop offset="58%" stop-color="#17263b"/>
      <stop offset="100%" stop-color="#6a2328"/>
    </linearGradient>
  </defs>
  <rect width="1600" height="960" fill="url(#bg)"/>
  <circle cx="1260" cy="230" r="260" fill="#f7f5f2" fill-opacity=".1"/>
  <g transform="translate(170 165) rotate(-6 520 280)">
    <rect x="0" y="0" width="700" height="420" rx="34" fill="#f7f5f2" fill-opacity=".08" stroke="#f7f5f2" stroke-opacity=".18"/>
    <rect x="70" y="88" width="560" height="74" rx="20" fill="#f7f5f2" fill-opacity=".2"/>
    <rect x="70" y="196" width="420" height="42" rx="16" fill="#f7f5f2" fill-opacity=".14"/>
    <rect x="70" y="270" width="500" height="42" rx="16" fill="#f7f5f2" fill-opacity=".12"/>
    <rect x="70" y="340" width="280" height="42" rx="16" fill="#a02c2c" fill-opacity=".6"/>
  </g>
  <g transform="translate(870 300)">
    <rect x="0" y="0" width="380" height="250" rx="30" fill="#0f1a2a" fill-opacity=".56" stroke="#f7f5f2" stroke-opacity=".14"/>
    <circle cx="80" cy="74" r="26" fill="#f7f5f2" fill-opacity=".18"/>
    <path d="M150 70h160" stroke="#f7f5f2" stroke-opacity=".26" stroke-width="18" stroke-linecap="round"/>
    <path d="M60 150h260" stroke="#f7f5f2" stroke-opacity=".15" stroke-width="16" stroke-linecap="round"/>
    <path d="M60 200h210" stroke="#f7f5f2" stroke-opacity=".12" stroke-width="16" stroke-linecap="round"/>
  </g>
  <text x="110" y="760" fill="#f7f5f2" font-family="Arial, sans-serif" font-size="82" font-weight="700" letter-spacing="-2">Membership Campaign Playbook</text>
  <text x="110" y="835" fill="#f7f5f2" fill-opacity=".72" font-family="Arial, sans-serif" font-size="34">Retention | Renewals | Lifetime Value</text>
</svg>
