<svg xmlns="http://www.w3.org/2000/svg" width="1600" height="960" viewBox="0 0 1600 960" role="img" aria-labelledby="title desc">
  <title id="title">ServiceTitan Audience Guide</title>
  <desc id="desc">Abstract audience strategy cover art with connected nodes and dashboard panels.</desc>
  <defs>
    <linearGradient id="bg" x1="0" x2="1" y1="0" y2="1">
      <stop offset="0%" stop-color="#0d1625"/>
      <stop offset="60%" stop-color="#15253a"/>
      <stop offset="100%" stop-color="#5c2026"/>
    </linearGradient>
  </defs>
  <rect width="1600" height="960" fill="url(#bg)"/>
  <g fill="none" stroke="#f7f5f2" stroke-opacity=".16" stroke-width="5">
    <path d="M280 230h250l160 130h240l180-140h250"/>
    <path d="M370 590h260l140-110h220l170 120h180"/>
  </g>
  <g>
    <circle cx="280" cy="230" r="46" fill="#3f5b7f"/>
    <circle cx="690" cy="360" r="58" fill="#f7f5f2" fill-opacity=".18"/>
    <circle cx="1110" cy="220" r="54" fill="#a02c2c" fill-opacity=".72"/>
    <circle cx="370" cy="590" r="42" fill="#f7f5f2" fill-opacity=".12"/>
    <circle cx="770" cy="480" r="56" fill="#3f5b7f" fill-opacity=".68"/>
    <circle cx="1160" cy="600" r="48" fill="#f7f5f2" fill-opacity=".16"/>
  </g>
  <g transform="translate(990 420)">
    <rect x="0" y="0" width="400" height="220" rx="28" fill="#0e1828" fill-opacity=".6" stroke="#f7f5f2" stroke-opacity=".14"/>
    <rect x="34" y="40" width="110" height="110" rx="20" fill="#f7f5f2" fill-opacity=".12"/>
    <rect x="182" y="52" width="180" height="22" rx="11" fill="#f7f5f2" fill-opacity=".2"/>
    <rect x="182" y="94" width="146" height="18" rx="9" fill="#f7f5f2" fill-opacity=".14"/>
    <rect x="182" y="132" width="132" height="18" rx="9" fill="#f7f5f2" fill-opacity=".12"/>
  </g>
  <text x="110" y="760" fill="#f7f5f2" font-family="Arial, sans-serif" font-size="82" font-weight="700" letter-spacing="-2">ServiceTitan Audience Guide</text>
  <text x="110" y="835" fill="#f7f5f2" fill-opacity=".72" font-family="Arial, sans-serif" font-size="34">Audience Strategy | Reactivation | Smarter Segmentation</text>
</svg>
